# xmcd CD database file
#
# Track frame offsets:
#	150
#	37080
#	62768
#	83229
#	107782
#
# Disc length: 1848 seconds
#
# Revision: 0
# Processed by: cddbd v1.5.2PL0 Copyright (c) Steve Scherf et al.
# Submitted via: CDex 1.70beta3
#
DISCID=3e073605
DTITLE=Hank Mobley - Blue Note Best Jazz Collection 10
DYEAR=2012
DGENRE=Jazz
TTITLE0=Recado Bossa Nova
TTITLE1=Remember
TTITLE2=Avila And Tequila
TTITLE3=Three Coins In The Fountain
TTITLE4=Mighty Moe And Joe
EXTD=YEAR: 2012
EXTT0=
EXTT1=
EXTT2=
EXTT3=
EXTT4=
PLAYORDER=
